<?xml version="1.0" standalone="no"?>
<svg xmlns:xlink="http://www.w3.org/1999/xlink" id="wave" style="transform:rotate(0deg); transition: 0.3s" viewBox="0 0 1440 490" version="1.1" xmlns="http://www.w3.org/2000/svg"><defs><linearGradient id="sw-gradient-0" x1="0" x2="0" y1="1" y2="0"><stop stop-color="rgba(243, 106, 62, 1)" offset="0%"/><stop stop-color="rgba(255, 179, 11, 1)" offset="100%"/></linearGradient></defs><path style="transform:translate(0, 0px); opacity:1" fill="url(#sw-gradient-0)" d="M0,0L26.7,32.7C53.3,65,107,131,160,196C213.3,261,267,327,320,302.2C373.3,278,427,163,480,155.2C533.3,147,587,245,640,261.3C693.3,278,747,212,800,155.2C853.3,98,907,49,960,49C1013.3,49,1067,98,1120,138.8C1173.3,180,1227,212,1280,236.8C1333.3,261,1387,278,1440,269.5C1493.3,261,1547,229,1600,220.5C1653.3,212,1707,229,1760,196C1813.3,163,1867,82,1920,65.3C1973.3,49,2027,98,2080,106.2C2133.3,114,2187,82,2240,98C2293.3,114,2347,180,2400,196C2453.3,212,2507,180,2560,171.5C2613.3,163,2667,180,2720,187.8C2773.3,196,2827,196,2880,220.5C2933.3,245,2987,294,3040,326.7C3093.3,359,3147,376,3200,367.5C3253.3,359,3307,327,3360,318.5C3413.3,310,3467,327,3520,285.8C3573.3,245,3627,147,3680,98C3733.3,49,3787,49,3813,49L3840,49L3840,490L3813.3,490C3786.7,490,3733,490,3680,490C3626.7,490,3573,490,3520,490C3466.7,490,3413,490,3360,490C3306.7,490,3253,490,3200,490C3146.7,490,3093,490,3040,490C2986.7,490,2933,490,2880,490C2826.7,490,2773,490,2720,490C2666.7,490,2613,490,2560,490C2506.7,490,2453,490,2400,490C2346.7,490,2293,490,2240,490C2186.7,490,2133,490,2080,490C2026.7,490,1973,490,1920,490C1866.7,490,1813,490,1760,490C1706.7,490,1653,490,1600,490C1546.7,490,1493,490,1440,490C1386.7,490,1333,490,1280,490C1226.7,490,1173,490,1120,490C1066.7,490,1013,490,960,490C906.7,490,853,490,800,490C746.7,490,693,490,640,490C586.7,490,533,490,480,490C426.7,490,373,490,320,490C266.7,490,213,490,160,490C106.7,490,53,490,27,490L0,490Z"/></svg>